<?xml version="1.0" standalone="no"?>
<!DOCTYPE svg PUBLIC "-//W3C//DTD SVG 20010904//EN"
 "http://www.w3.org/TR/2001/REC-SVG-20010904/DTD/svg10.dtd">
<svg version="1.0" xmlns="http://www.w3.org/2000/svg"
 width="96.000000pt" height="96.000000pt" viewBox="0 0 96.000000 96.000000"
 preserveAspectRatio="xMidYMid meet">

<g transform="translate(0.000000,96.000000) scale(0.100000,-0.100000)"
fill="%1" stroke="none">
<path d="M60 878 c0 -41 6 -49 150 -203 l150 -160 0 -171 c0 -150 2 -173 17
-186 26 -22 189 -118 201 -118 19 0 22 33 22 253 l0 222 150 160 c144 154 150
162 150 203 l0 42 -420 0 -420 0 0 -42z m798 -17 c-2 -10 -69 -89 -150 -175
l-148 -155 0 -216 c0 -118 -3 -215 -6 -215 -4 0 -40 19 -80 42 l-74 42 0 173
0 174 -147 155 c-82 86 -149 165 -151 175 -3 18 9 19 378 19 369 0 381 -1 378
-19z"/>
</g>
</svg>
