<?xml version="1.0" standalone="no"?>
<!DOCTYPE svg PUBLIC "-//W3C//DTD SVG 20010904//EN"
 "http://www.w3.org/TR/2001/REC-SVG-20010904/DTD/svg10.dtd">
<svg version="1.0" xmlns="http://www.w3.org/2000/svg"
 width="96.000000pt" height="96.000000pt" viewBox="0 0 96.000000 96.000000"
 preserveAspectRatio="xMidYMid meet">

<g transform="translate(0.000000,96.000000) scale(0.100000,-0.100000)"
fill="%1" stroke="none">
<path d="M282 879 c-75 -29 -153 -108 -180 -182 -60 -159 1 -325 148 -406 60
-33 71 -36 150 -36 73 0 93 4 140 27 l55 28 125 -125 126 -125 27 28 27 28
-124 123 -124 124 28 44 c101 159 38 372 -135 461 -70 36 -188 41 -263 11z
m261 -52 c161 -95 195 -300 72 -445 -14 -17 -53 -45 -87 -61 -106 -54 -223
-38 -314 42 -124 109 -128 304 -8 419 64 61 115 79 210 75 66 -3 89 -8 127
-30z"/>
</g>
</svg>
