<?xml version="1.0" encoding="UTF-8" standalone="no"?>
<svg  version="1.1" width="5000" height="1000" viewBox="0 0 5000 1000"
	xmlns="http://www.w3.org/2000/svg" xmlns:xlink="http://www.w3.org/1999/xlink" xmlns:ev="http://www.w3.org/2001/xml-events">

	<path d="M 500,20 618,358 976,365 690,582 794,924 500,720 206,924 310,582 24,365 382,358 z"
		fill="%1" stroke-width="24" stroke="#CCCC00"/>
	<path d="M 1500,20 1618,358 1976,365 1690,582 1794,924 1500,720 1206,924 1310,582 1024,365 1382,358 z"
		fill="%2" stroke-width="24" stroke="#CCCC00"/>
	<path d="M 2500,20 2618,358 2976,365 2690,582 2794,924 2500,720 2206,924 2310,582 2024,365 2382,358 z"
		fill="%3" stroke-width="24" stroke="#CCCC00"/>
	<path d="M 3500,20 3618,358 3976,365 3690,582 3794,924 3500,720 3206,924 3310,582 3024,365 3382,358 z"
		fill="%4" stroke-width="24" stroke="#CCCC00"/>
	<path d="M 4500,20 4618,358 4976,365 4690,582 4794,924 4500,720 4206,924 4310,582 4024,365 4382,358 z"
		fill="%5" stroke-width="24" stroke="#CCCC00"/>
</svg>
