<svg xmlns="http://www.w3.org/2000/svg" shape-rendering="geometricPrecision" text-rendering="geometricPrecision" image-rendering="optimizeQuality" fill-rule="evenodd" clip-rule="evenodd" viewBox="0 0 512 510.784">
<path fill-rule="nonzero" d="M217.587 0c60.082 0 114.478 24.36 153.849 63.73 39.371 39.371 63.731 93.782 63.731 153.857 0 52.338-18.484 100.353-49.276 137.893l119.914 119.387c8.228 8.183 8.264 21.495.081 29.722s-21.495 8.264-29.722.081l-119.93-119.395c-37.641 31.166-85.957 49.892-138.647 49.892-60.075 0-114.486-24.36-153.857-63.731C24.36 332.065 0 277.669 0 217.587 0 157.512 24.36 103.101 63.73 63.73 103.101 24.36 157.512 0 217.587 0zm124.046 93.533c-31.737-31.737-75.605-51.379-124.046-51.379-48.448 0-92.317 19.642-124.054 51.379-31.737 31.737-51.379 75.606-51.379 124.054 0 48.441 19.642 92.309 51.379 124.046 31.737 31.737 75.606 51.379 124.054 51.379 48.441 0 92.309-19.642 124.046-51.379 31.737-31.737 51.379-75.605 51.379-124.046 0-48.448-19.642-92.317-51.379-124.054z"/></svg>
