<svg xmlns="http://www.w3.org/2000/svg" shape-rendering="geometricPrecision" text-rendering="geometricPrecision" image-rendering="optimizeQuality" fill-rule="evenodd" clip-rule="evenodd" viewBox="0 0 398 512.188">
<path fill-rule="nonzero" d="M59.904 0H277.45a9.13 9.13 0 017.303 3.641l110.781 119.851a9.069 9.069 0 012.419 6.179H398v322.613c0 32.802-27.105 59.904-59.906 59.904H59.904C27.019 512.188 0 485.171 0 452.284V59.906C0 26.942 26.938 0 59.904 0zM18.289 339.085h361.422V147.794h-45.186v-.038h-.143c-21.853-.346-38.959-6.145-51.16-16.567-12.663-10.821-19.766-26.266-21.174-45.471a9.129 9.129 0 01-.086-1.254V18.289H59.904c-22.872 0-41.615 18.745-41.615 41.617v279.179zm361.422 18.495H18.289v94.704c0 22.797 18.82 41.615 41.615 41.615h278.19c22.711 0 41.617-18.905 41.617-41.615V357.58zm-72.596-109.684h-27.864v10.588h34.133v22.291h-61.996v-87.076h61.299l-3.481 22.292h-29.955v11.703h27.864v20.202zm-118.771-54.197l9.614 23.267h1.392l9.615-23.267h30.231l-19.365 42.075 19.365 45.001h-30.928l-10.45-25.077h-1.254l-10.309 25.077h-29.536l18.948-44.164-18.948-42.912h31.625zm-47.997 54.197h-27.863v10.588h34.133v22.291H84.62v-87.076h61.3l-3.482 22.292h-29.954v11.703h27.863v20.202zm-19.884 188.005c-5.207 0-9.43-4.224-9.43-9.431 0-5.207 4.223-9.431 9.43-9.431H273.73c5.207 0 9.431 4.224 9.431 9.431 0 5.207-4.224 9.431-9.431 9.431H120.463zM280.25 25.577v58.847c1.041 14.194 6.017 25.376 14.832 32.907 8.946 7.64 22.117 11.911 39.443 12.209v-.035h41.788L280.25 25.577z"/></svg>