<svg xmlns="http://www.w3.org/2000/svg" shape-rendering="geometricPrecision" text-rendering="geometricPrecision" image-rendering="optimizeQuality" fill-rule="evenodd" clip-rule="evenodd" viewBox="0 0 415 512.572">
<path fill-rule="nonzero" d="M106.95 239.595C77.295 203.581 36.099 146.417 5.112 115.43.484 107.719-.959 99.036.61 90.977c1.609-8.3 6.324-15.885 13.944-21.102l2.601-1.589L152.122 0l11.746 23.296c-12.434 6.292-93.43 46.069-123.485 61.863 113.328 8.43 202.581 50.998 265.63 119.244C375.634 279.759 412.909 386.158 415 512.161l-26.046.411c-1.984-119.466-36.916-219.904-102.142-290.502-59.271-64.155-143.951-103.929-252.057-111.185l92.32 112.158-20.125 16.552z"/></svg>