<svg xmlns="http://www.w3.org/2000/svg" shape-rendering="geometricPrecision" text-rendering="geometricPrecision" image-rendering="optimizeQuality" fill-rule="evenodd" clip-rule="evenodd" viewBox="0 0 398 512.188">
<path fill-rule="nonzero" d="M59.904 0H277.45a9.13 9.13 0 017.303 3.641l110.781 119.851a9.069 9.069 0 012.419 6.179H398v322.613c0 16.401-6.783 31.384-17.651 42.253-10.87 10.87-25.855 17.651-42.255 17.651H59.904c-16.421 0-31.422-6.756-42.294-17.628C6.763 483.714 0 468.75 0 452.284V59.906C0 43.422 6.739 28.44 17.59 17.59 28.44 6.739 43.42 0 59.904 0zM18.289 339.085h361.422V147.794c-30.513 0-71.711 4.559-96.489-16.605-12.663-10.821-19.766-26.266-21.174-45.471a9.129 9.129 0 01-.086-1.254V18.289H59.904c-11.435 0-21.839 4.686-29.384 12.231-7.545 7.544-12.231 17.949-12.231 29.386v279.179zm361.422 18.495H18.289v94.704c0 11.413 4.705 21.802 12.251 29.347 7.566 7.566 17.984 12.268 29.364 12.268h278.19c11.355 0 21.757-4.723 29.325-12.292 7.569-7.569 12.292-17.969 12.292-29.323V357.58zm-103.805-97.842h-18.111v21.037h-27.864v-87.076h43.886c19.969 0 29.953 10.728 29.953 32.184 0 11.796-2.601 20.526-7.802 26.192-1.949 2.136-4.644 3.949-8.08 5.433-3.436 1.488-7.431 2.23-11.982 2.23zm-18.111-43.747v21.456h6.409c3.344 0 5.782-.348 7.315-1.045 1.532-.697 2.298-2.298 2.298-4.806v-9.753c0-2.507-.766-4.111-2.298-4.806-1.533-.697-3.971-1.046-7.315-1.046h-6.409zm-73.84 64.784v-87.076h27.863v87.076h-27.863zm-14.628 0H94.232v-17.416l35.666-46.531-.417-.837h-29.258l-2.508-22.292h71.053v17.416l-35.247 46.534.417.835h35.389v22.291zm-48.864 155.126c-5.207 0-9.43-4.224-9.43-9.431 0-5.207 4.223-9.431 9.43-9.431H273.73c5.207 0 9.431 4.224 9.431 9.431 0 5.207-4.224 9.431-9.431 9.431H120.463zM280.25 25.577v58.847c1.041 14.194 6.017 25.376 14.832 32.907 19.07 16.285 57.587 12.174 81.231 12.174L280.25 25.577z"/></svg>